<svg xmlns="http://www.w3.org/2000/svg" viewBox="0 0 64 64">
  <rect width="64" height="64" fill="#0a0a0a"/>
  <path d="M48 16c-4.4 0-8 3.6-8 8 0 1.2.3 2.3.7 3.3L22 46l-6-6 18.7-18.7c1 .4 2.1.7 3.3.7 4.4 0 8-3.6 8-8 0-1.2-.3-2.3-.7-3.3L40 16l-4 4 4 4 5.3-5.3c.4 1 .7 2.1.7 3.3z" fill="#4a9f5a"/>
  <path d="M16 42l6 6-4 4-6-6 4-4z" fill="#4a9f5a"/>
  <rect x="8" y="8" width="4" height="4" fill="#4a9f5a" opacity="0.5"/>
  <rect x="52" y="8" width="4" height="4" fill="#4a9f5a" opacity="0.5"/>
  <rect x="8" y="52" width="4" height="4" fill="#4a9f5a" opacity="0.5"/>
  <rect x="52" y="52" width="4" height="4" fill="#4a9f5a" opacity="0.5"/>
</svg>
